<svg width="46" height="34" viewBox="0 0 46 34" fill="none" xmlns="http://www.w3.org/2000/svg">
<path d="M39.5537 17.2656C40.512 17.5312 41.3805 17.9223 42.1592 18.4388C42.9378 18.9553 43.6191 19.5751 44.2031 20.2982C44.7871 21.0213 45.2288 21.8255 45.5283 22.7109C45.8278 23.5964 45.985 24.526 46 25.5C46 26.6806 45.7754 27.7799 45.3262 28.7982C44.877 29.8164 44.263 30.7166 43.4844 31.4987C42.7057 32.2808 41.7848 32.8932 40.7217 33.3359C39.6585 33.7786 38.543 34 37.375 34H12.9375C11.5449 34 10.2422 33.7418 9.0293 33.2253C7.81641 32.7088 6.74577 32.0004 5.81738 31.1003C4.889 30.2001 4.17025 29.1523 3.66113 27.957C3.15202 26.7617 2.88997 25.4705 2.875 24.0833C2.875 22.9766 3.05469 21.9141 3.41406 20.8958C2.35091 20.099 1.51986 19.1102 0.920898 17.9297C0.32194 16.7491 0.014974 15.4948 0 14.1667C0 13.0009 0.224609 11.9015 0.673828 10.8685C1.12305 9.8355 1.73698 8.93533 2.51562 8.16797C3.29427 7.40061 4.20768 6.78819 5.25586 6.33073C6.30404 5.87326 7.42708 5.65191 8.625 5.66667H9.09668C9.24642 5.66667 9.41113 5.68142 9.59082 5.71094C9.99512 4.82552 10.5117 4.03602 11.1406 3.34245C11.7695 2.64887 12.4808 2.05122 13.2744 1.54948C14.068 1.04774 14.9215 0.664062 15.835 0.398438C16.7484 0.132812 17.6992 0 18.6875 0C19.9453 0 21.1357 0.213976 22.2588 0.641927C23.3818 1.06988 24.3926 1.66753 25.291 2.4349C26.1895 3.20226 26.9307 4.10981 27.5146 5.15755C28.0986 6.2053 28.4805 7.34158 28.6602 8.56641C29.918 8.68446 31.1159 8.9796 32.2539 9.45182C33.3919 9.92404 34.4401 10.5512 35.3984 11.3333C36.3568 12.1155 37.1878 13.0009 37.8916 13.9896C38.5954 14.9783 39.1494 16.0703 39.5537 17.2656ZM8.625 8.5C7.83138 8.5 7.09017 8.64757 6.40137 8.94271C5.71256 9.23785 5.09863 9.64366 4.55957 10.1602C4.02051 10.6766 3.60872 11.2743 3.32422 11.9531C3.03971 12.6319 2.88997 13.3698 2.875 14.1667C2.875 14.9635 3.03223 15.7161 3.34668 16.4245C3.66113 17.1328 4.12533 17.7674 4.73926 18.3281C5.68262 17.0148 6.87305 15.9965 8.31055 15.2734C9.74805 14.5503 11.2904 14.1814 12.9375 14.1667C13.5065 14.1667 14.068 14.2109 14.6221 14.2995C15.1761 14.388 15.7152 14.5282 16.2393 14.7201C16.7184 13.8789 17.3024 13.1115 17.9912 12.418C18.68 11.7244 19.4362 11.112 20.2598 10.5807C21.0833 10.0495 21.9593 9.61415 22.8877 9.27474C23.8161 8.93533 24.7669 8.7066 25.7402 8.58854C25.5755 7.76215 25.2835 6.99479 24.8643 6.28646C24.445 5.57812 23.9134 4.97309 23.2695 4.47135C22.6257 3.96962 21.9219 3.57118 21.1582 3.27604C20.3945 2.9809 19.571 2.83333 18.6875 2.83333C17.7591 2.83333 16.8831 2.99566 16.0596 3.32031C15.236 3.64497 14.5023 4.10243 13.8584 4.69271C13.2145 5.28299 12.6904 5.96918 12.2861 6.7513C11.8818 7.53342 11.6423 8.38932 11.5674 9.31901C11.1182 9.06814 10.6465 8.86892 10.1523 8.72135C9.6582 8.57378 9.14909 8.5 8.625 8.5ZM37.375 31.1667C38.1686 31.1667 38.9098 31.0191 39.5986 30.724C40.2874 30.4288 40.9014 30.023 41.4404 29.5065C41.9795 28.99 42.3913 28.3924 42.6758 27.7135C42.9603 27.0347 43.11 26.2969 43.125 25.5C43.125 24.6884 42.9753 23.9358 42.6758 23.2422C42.3763 22.5486 41.9495 21.951 41.3955 21.4492C40.8415 20.9475 40.2126 20.549 39.5088 20.2539C38.805 19.9588 38.0413 19.8186 37.2178 19.8333C37.0381 18.6233 36.6562 17.5017 36.0723 16.4688C35.4883 15.4358 34.762 14.5356 33.8936 13.7682C33.0251 13.0009 32.0218 12.4032 30.8838 11.9753C29.7458 11.5473 28.5553 11.3333 27.3125 11.3333C26.1595 11.3333 25.0664 11.5178 24.0332 11.8867C23 12.2556 22.0492 12.7648 21.1807 13.4141C20.3122 14.0634 19.5785 14.8455 18.9795 15.7604C18.3805 16.6753 17.9238 17.6714 17.6094 18.7487C16.9505 18.1879 16.2243 17.76 15.4307 17.4648C14.637 17.1697 13.806 17.0148 12.9375 17C11.9492 17 11.0208 17.1845 10.1523 17.5534C9.28385 17.9223 8.52018 18.424 7.86133 19.0586C7.20247 19.6931 6.68587 20.4457 6.31152 21.3164C5.93717 22.1871 5.75 23.1094 5.75 24.0833C5.75 25.0573 5.93717 25.9722 6.31152 26.8281C6.68587 27.684 7.19499 28.4366 7.83887 29.0859C8.48275 29.7352 9.24642 30.2444 10.1299 30.6133C11.0133 30.9822 11.9492 31.1667 12.9375 31.1667H37.375Z" fill="#7E7E7E"/>
</svg>
