<svg width="21" height="40" viewBox="0 0 21 40" fill="none" xmlns="http://www.w3.org/2000/svg">
<path d="M4.5 6C4.5 4.4087 5.13214 2.88258 6.25736 1.75736C7.38258 0.632141 8.9087 0 10.5 0C12.0913 0 13.6174 0.632141 14.7426 1.75736C15.8679 2.88258 16.5 4.4087 16.5 6V22C18.1791 23.2593 19.4193 25.015 20.0451 27.0183C20.6709 29.0217 20.6505 31.1712 19.9868 33.1623C19.3231 35.1534 18.0498 36.8852 16.3471 38.1124C14.6444 39.3396 12.5988 40 10.5 40C8.40118 40 6.35555 39.3396 4.6529 38.1124C2.95024 36.8852 1.67687 35.1534 1.01317 33.1623C0.349461 31.1712 0.329063 29.0217 0.954864 27.0183C1.58067 25.015 2.82094 23.2593 4.5 22V6ZM10.5 4C9.96957 4 9.46086 4.21071 9.08579 4.58579C8.71071 4.96086 8.5 5.46957 8.5 6V23.07C8.49999 23.4211 8.40757 23.7659 8.23204 24.07C8.0565 24.374 7.80403 24.6265 7.5 24.802C6.35594 25.4622 5.46172 26.4815 4.95605 27.7018C4.45039 28.9221 4.36154 30.2752 4.70329 31.5511C5.04505 32.827 5.7983 33.9545 6.8462 34.7587C7.89411 35.5628 9.1781 35.9987 10.499 35.9987C11.8199 35.9987 13.1039 35.5628 14.1518 34.7587C15.1997 33.9545 15.953 32.827 16.2947 31.5511C16.6365 30.2752 16.5476 28.9221 16.0419 27.7018C15.5363 26.4815 14.6421 25.4622 13.498 24.802C13.1943 24.6262 12.9423 24.3736 12.7671 24.0696C12.5919 23.7656 12.4998 23.4209 12.5 23.07V6C12.5 5.46957 12.2893 4.96086 11.9142 4.58579C11.5391 4.21071 11.0304 4 10.5 4Z" fill="#7E7E7E"/>
</svg>
