<svg width="23" height="41" viewBox="0 0 23 41" fill="none" xmlns="http://www.w3.org/2000/svg">
<path d="M13.3045 26.4636V8.68179C13.3045 8.19958 13.1118 7.73712 12.7688 7.39615C12.4258 7.05518 11.9607 6.86362 11.4756 6.86362C10.9906 6.86362 10.5254 7.05518 10.1824 7.39615C9.8394 7.73712 9.64672 8.19958 9.64672 8.68179V26.4636C9.09389 26.7809 8.63421 27.2364 8.31337 27.7851C7.99252 28.3337 7.82168 28.9562 7.81783 29.5908C7.81783 30.5552 8.2032 31.4802 8.88917 32.1621C9.57513 32.8441 10.5055 33.2272 11.4756 33.2272C12.4457 33.2272 13.3761 32.8441 14.062 32.1621C14.748 31.4802 15.1334 30.5552 15.1334 29.5908C15.1295 28.9562 14.9587 28.3337 14.6378 27.7851C14.317 27.2364 13.8573 26.7809 13.3045 26.4636ZM19.7056 22.3181V8.68179C19.7056 6.51185 18.8385 4.43078 17.2951 2.89639C15.7517 1.36201 13.6583 0.5 11.4756 0.5C9.29288 0.5 7.19954 1.36201 5.65612 2.89639C4.1127 4.43078 3.24561 6.51185 3.24561 8.68179V22.3181C1.98156 23.7421 1.11336 25.4695 0.726893 27.3294C0.34042 29.1894 0.449068 31.1174 1.04209 32.9227C1.63511 34.7281 2.69195 36.3483 4.10808 37.623C5.52421 38.8978 7.25055 39.7829 9.11634 40.1908C9.8914 40.3664 10.6812 40.4699 11.4756 40.4999C13.5983 40.5097 15.6782 39.9073 17.4634 38.7656C19.2486 37.6239 20.6624 35.992 21.5335 34.0676C22.4045 32.1433 22.6955 30.009 22.3711 27.9236C22.0466 25.8381 21.1207 23.891 19.7056 22.3181ZM16.0478 35.1726C15.0845 35.9512 13.9378 36.4733 12.7155 36.6897C11.4933 36.9061 10.2357 36.8098 9.0613 36.4097C7.88685 36.0096 6.83415 35.3189 6.0023 34.4027C5.17045 33.4865 4.58682 32.375 4.30637 31.1726C4.02381 29.9573 4.06046 28.6901 4.41277 27.4929C4.76508 26.2956 5.42123 25.2086 6.31814 24.3363C6.49095 24.1679 6.62843 23.9671 6.72261 23.7455C6.81679 23.5239 6.8658 23.2859 6.86681 23.0454V8.68179C6.86681 7.47627 7.34852 6.32012 8.20598 5.46768C9.06344 4.61525 10.2264 4.13635 11.439 4.13635C12.6517 4.13635 13.8146 4.61525 14.6721 5.46768C15.5295 6.32012 16.0112 7.47627 16.0112 8.68179V23.1181C16.0122 23.3587 16.0613 23.5966 16.1554 23.8182C16.2496 24.0398 16.3871 24.2406 16.5599 24.409C17.3075 25.127 17.8926 25.9951 18.2762 26.9554C18.6598 27.9158 18.8332 28.9464 18.7847 29.9786C18.7363 31.0109 18.4671 32.021 17.9952 32.9416C17.5233 33.8623 16.8594 34.6725 16.0478 35.3181V35.1726Z" fill="#7E7E7E"/>
</svg>
