<svg width="43" height="40" viewBox="0 0 43 40" fill="none" xmlns="http://www.w3.org/2000/svg">
<path d="M11.4018 29.1313C11.5655 29.1852 11.7168 29.2706 11.847 29.3824C11.9773 29.4943 12.084 29.6304 12.1611 29.7831C12.2381 29.9357 12.284 30.1019 12.2961 30.2721C12.3081 30.4423 12.2862 30.6132 12.2314 30.775L10.9188 34.6701C10.7993 34.9844 10.5613 35.2407 10.2548 35.3852C9.94826 35.5296 9.5971 35.551 9.275 35.4448C8.95291 35.3386 8.68495 35.1131 8.52737 34.8156C8.3698 34.5182 8.33488 34.1719 8.42995 33.8495L9.74261 29.9544C9.8523 29.6277 10.0887 29.3574 10.3999 29.203C10.711 29.0486 11.0714 29.0228 11.4018 29.1313ZM19.2778 29.1313C19.4415 29.1852 19.5927 29.2706 19.723 29.3824C19.8533 29.4943 19.96 29.6304 20.0371 29.7831C20.1141 29.9357 20.16 30.1019 20.1721 30.2721C20.1841 30.4423 20.1622 30.6132 20.1074 30.775L17.4821 38.5652C17.3626 38.8795 17.1246 39.1358 16.8181 39.2803C16.5116 39.4247 16.1604 39.4461 15.8383 39.3399C15.5162 39.2337 15.2483 39.0082 15.0907 38.7107C14.9331 38.4133 14.8982 38.067 14.9933 37.7446L17.6186 29.9544C17.7283 29.6277 17.9647 29.3574 18.2759 29.203C18.587 29.0486 18.9474 29.0228 19.2778 29.1313ZM27.1538 29.1313C27.3175 29.1852 27.4687 29.2706 27.599 29.3824C27.7293 29.4943 27.836 29.6304 27.9131 29.7831C27.9901 29.9357 28.036 30.1019 28.048 30.2721C28.0601 30.4423 28.0382 30.6132 27.9834 30.775L26.6707 34.6701C26.5512 34.9844 26.3132 35.2407 26.0067 35.3852C25.7002 35.5296 25.3491 35.551 25.027 35.4448C24.7049 35.3386 24.4369 35.1131 24.2794 34.8156C24.1218 34.5182 24.0869 34.1719 24.1819 33.8495L25.4946 29.9544C25.6043 29.6277 25.8407 29.3574 26.1519 29.203C26.463 29.0486 26.8234 29.0228 27.1538 29.1313ZM35.0298 29.1313C35.1934 29.1852 35.3447 29.2706 35.475 29.3824C35.6053 29.4943 35.712 29.6304 35.789 29.7831C35.8661 29.9357 35.912 30.1019 35.924 30.2721C35.9361 30.4423 35.9141 30.6132 35.8594 30.775L33.2341 38.5652C33.1846 38.7328 33.1015 38.8889 32.9897 39.0241C32.8778 39.1592 32.7395 39.2706 32.5831 39.3517C32.4267 39.4328 32.2554 39.4818 32.0794 39.4958C31.9034 39.5098 31.7263 39.4886 31.5588 39.4334C31.3913 39.3781 31.2368 39.29 31.1045 39.1744C30.9722 39.0587 30.8649 38.9178 30.7889 38.7601C30.7129 38.6025 30.6699 38.4313 30.6624 38.2568C30.6549 38.0823 30.6831 37.9081 30.7453 37.7446L33.3706 29.9544C33.4803 29.6277 33.7167 29.3574 34.0279 29.203C34.339 29.0486 34.6994 29.0228 35.0298 29.1313ZM35.6783 10.9594C35.1331 8.241 33.723 5.76645 31.6541 3.8975C29.5853 2.02856 26.9663 0.863244 24.1799 0.57195C21.3936 0.280656 18.5861 0.878659 16.168 2.27852C13.7499 3.67839 11.8479 5.80669 10.7402 8.35224C9.49803 8.2107 8.23969 8.32142 7.04225 8.67763C5.84481 9.03384 4.73347 9.62804 3.77628 10.4239C2.81909 11.2197 2.03618 12.2003 1.4755 13.3058C0.91482 14.4113 0.588159 15.6184 0.515519 16.8531C0.442878 18.0878 0.625786 19.3242 1.05304 20.4866C1.4803 21.6489 2.14292 22.7128 3.00033 23.613C3.85774 24.5133 4.89189 25.231 6.03948 25.7222C7.18706 26.2134 8.42393 26.4677 9.67435 26.4696H34.615C36.6132 26.4719 38.5375 25.7228 39.9982 24.3742C41.4589 23.0256 42.3468 21.1783 42.4819 19.2064C42.6171 17.2346 41.9895 15.2856 40.7262 13.7543C39.4629 12.223 37.6584 11.2239 35.6783 10.9594ZM22.801 3.09906C25.3842 3.09853 27.877 4.03978 29.8027 5.74283C31.7284 7.44587 32.9519 9.79122 33.2393 12.3304C33.275 12.6495 33.4289 12.9441 33.6713 13.1575C33.9137 13.3709 34.2275 13.4879 34.552 13.486H34.615C36.0076 13.486 37.3431 14.0331 38.3278 15.0071C39.3125 15.9811 39.8657 17.302 39.8657 18.6794C39.8657 20.0568 39.3125 21.3778 38.3278 22.3518C37.3431 23.3257 36.0076 23.8729 34.615 23.8729H9.67435C8.74518 23.8724 7.82669 23.6768 6.97965 23.299C6.13262 22.9213 5.37633 22.3699 4.76082 21.6814C4.14532 20.9929 3.68463 20.183 3.40922 19.3052C3.13381 18.4275 3.04997 17.5019 3.16324 16.5897C3.27651 15.6775 3.5843 14.7995 4.06627 14.0137C4.54823 13.228 5.19338 12.5524 5.95903 12.0317C6.72468 11.511 7.59338 11.157 8.50768 10.9932C9.42197 10.8294 10.361 10.8595 11.2627 11.0814C11.5844 11.1608 11.9245 11.1168 12.2147 10.9583C12.505 10.7998 12.7238 10.5386 12.8274 10.2271C13.5205 8.15232 14.8575 6.34661 16.6481 5.06687C18.4388 3.78712 20.5918 3.09853 22.801 3.09906Z" fill="#7E7E7E"/>
</svg>
