<svg width="33" height="38" viewBox="0 0 33 38" fill="none" xmlns="http://www.w3.org/2000/svg">
<path d="M16.5 2V36V2ZM20.9631 5.64286C19.6161 6.43969 18.0727 6.85961 16.5 6.85714C14.9273 6.85961 13.3839 6.43969 12.0369 5.64286M12.0369 32.3571C13.3849 31.5626 14.9276 31.1428 16.5 31.1428C18.0724 31.1428 19.6152 31.5626 20.9631 32.3571M31.5 10.5L1.5 27.5L31.5 10.5ZM30.5164 16.1161C29.1411 15.3674 27.9992 14.2656 27.2131 12.9287C26.427 11.5918 26.0264 10.0701 26.0541 8.52679M2.48356 21.8839C3.8589 22.6326 5.00079 23.7344 5.78687 25.0713C6.57296 26.4082 6.97361 27.9299 6.9459 29.4732M1.5 10.5L31.5 27.5L1.5 10.5ZM2.48356 16.1161C3.8589 15.3674 5.00079 14.2656 5.78687 12.9287C6.57296 11.5918 6.97361 10.0701 6.9459 8.52679M30.5164 21.8839C29.1411 22.6326 27.9992 23.7344 27.2131 25.0713C26.427 26.4082 26.0264 27.9299 26.0541 29.4732" fill="#7E7E7E"/>
<path d="M16.5 2V36M20.9631 5.64286C19.6161 6.43969 18.0727 6.85961 16.5 6.85714C14.9273 6.85961 13.3839 6.43969 12.0369 5.64286M12.0369 32.3571C13.3849 31.5626 14.9276 31.1428 16.5 31.1428C18.0724 31.1428 19.6152 31.5626 20.9631 32.3571M31.5 10.5L1.5 27.5M30.5164 16.1161C29.1411 15.3674 27.9992 14.2656 27.2131 12.9287C26.427 11.5918 26.0264 10.0701 26.0541 8.52679M2.48356 21.8839C3.8589 22.6326 5.00079 23.7344 5.78687 25.0713C6.57296 26.4082 6.97361 27.9299 6.9459 29.4732M1.5 10.5L31.5 27.5M2.48356 16.1161C3.8589 15.3674 5.00079 14.2656 5.78687 12.9287C6.57296 11.5918 6.97361 10.0701 6.9459 8.52679M30.5164 21.8839C29.1411 22.6326 27.9992 23.7344 27.2131 25.0713C26.427 26.4082 26.0264 27.9299 26.0541 29.4732" stroke="#7E7E7E" stroke-width="3" stroke-linecap="round" stroke-linejoin="round"/>
</svg>
