<svg width="39" height="39" viewBox="0 0 39 39" fill="none" xmlns="http://www.w3.org/2000/svg">
<path d="M19.5 7.09091C18.9977 7.09091 18.577 6.92073 18.2378 6.58037C17.8986 6.24 17.7285 5.81928 17.7273 5.31819V1.77273C17.7273 1.27046 17.8975 0.849733 18.2378 0.510551C18.5782 0.17137 18.9989 0.00118793 19.5 6.11285e-06C20.0011 -0.0011757 20.4224 0.169006 20.764 0.510551C21.1055 0.852097 21.2751 1.27282 21.2727 1.77273V5.31819C21.2727 5.82046 21.1025 6.24178 20.7622 6.58214C20.4218 6.9225 20.0011 7.09209 19.5 7.09091ZM28.275 10.725C27.95 10.4 27.7875 9.99405 27.7875 9.50714C27.7875 9.02023 27.95 8.59891 28.275 8.24319L30.7568 5.71705C31.1114 5.3625 31.5321 5.18523 32.019 5.18523C32.5059 5.18523 32.9272 5.3625 33.2829 5.71705C33.6079 6.04205 33.7704 6.45569 33.7704 6.95796C33.7704 7.46023 33.6079 7.87387 33.2829 8.19887L30.7568 10.725C30.4318 11.05 30.0182 11.2125 29.5159 11.2125C29.0136 11.2125 28.6 11.05 28.275 10.725ZM33.6818 21.2727C33.1795 21.2727 32.7582 21.1025 32.4179 20.7622C32.0775 20.4218 31.9079 20.0011 31.9091 19.5C31.9103 18.9989 32.0805 18.5782 32.4196 18.2378C32.7588 17.8975 33.1795 17.7273 33.6818 17.7273H37.2273C37.7295 17.7273 38.1509 17.8975 38.4912 18.2378C38.8316 18.5782 39.0012 18.9989 39 19.5C38.9988 20.0011 38.8286 20.4224 38.4894 20.764C38.1503 21.1055 37.7295 21.2751 37.2273 21.2727H33.6818ZM19.5 39C18.9977 39 18.577 38.8298 18.2378 38.4894C17.8986 38.1491 17.7285 37.7284 17.7273 37.2273V33.6818C17.7273 33.1795 17.8975 32.7588 18.2378 32.4196C18.5782 32.0805 18.9989 31.9103 19.5 31.9091C20.0011 31.9079 20.4224 32.0781 20.764 32.4196C21.1055 32.7612 21.2751 33.1819 21.2727 33.6818V37.2273C21.2727 37.7295 21.1025 38.1509 20.7622 38.4912C20.4218 38.8316 20.0011 39.0012 19.5 39ZM8.24319 10.725L5.71705 8.24319C5.3625 7.88864 5.18523 7.46023 5.18523 6.95796C5.18523 6.45569 5.3625 6.04205 5.71705 5.71705C6.04205 5.39205 6.45569 5.22955 6.95796 5.22955C7.46023 5.22955 7.87387 5.39205 8.19887 5.71705L10.725 8.24319C11.05 8.56818 11.2125 8.98182 11.2125 9.48409C11.2125 9.98637 11.05 10.4 10.725 10.725C10.3705 11.05 9.95682 11.2125 9.48409 11.2125C9.01137 11.2125 8.59773 11.05 8.24319 10.725ZM30.7568 33.2829L28.275 30.7568C27.95 30.4023 27.7875 29.9815 27.7875 29.4946C27.7875 29.0077 27.95 28.6012 28.275 28.275C28.6 27.9488 29.0065 27.7863 29.4946 27.7875C29.9827 27.7887 30.4035 27.9512 30.7568 28.275L33.2829 30.7568C33.6375 31.0818 33.8077 31.4954 33.7935 31.9977C33.7793 32.5 33.6091 32.9284 33.2829 33.2829C32.9284 33.6375 32.5 33.8148 31.9977 33.8148C31.4954 33.8148 31.0818 33.6375 30.7568 33.2829ZM1.77273 21.2727C1.27046 21.2727 0.849733 21.1025 0.510551 20.7622C0.17137 20.4218 0.00118793 20.0011 6.11285e-06 19.5C-0.0011757 18.9989 0.169006 18.5782 0.510551 18.2378C0.852097 17.8975 1.27282 17.7273 1.77273 17.7273H5.31819C5.82046 17.7273 6.24178 17.8975 6.58214 18.2378C6.9225 18.5782 7.09209 18.9989 7.09091 19.5C7.08973 20.0011 6.91955 20.4224 6.58037 20.764C6.24119 21.1055 5.82046 21.2751 5.31819 21.2727H1.77273ZM5.71705 33.2829C5.39205 32.958 5.22955 32.5443 5.22955 32.042C5.22955 31.5398 5.39205 31.1261 5.71705 30.8011L8.24319 28.275C8.56818 27.95 8.97414 27.7875 9.46105 27.7875C9.94796 27.7875 10.3693 27.95 10.725 28.275C11.0795 28.6295 11.2568 29.0509 11.2568 29.539C11.2568 30.027 11.0795 30.4478 10.725 30.8011L8.24319 33.2829C7.88864 33.6375 7.46023 33.8148 6.95796 33.8148C6.45569 33.8148 6.04205 33.6375 5.71705 33.2829ZM19.5 30.1364C16.5455 30.1364 14.0341 29.1023 11.9659 27.0341C9.89773 24.9659 8.86364 22.4545 8.86364 19.5C8.86364 16.5455 9.89773 14.0341 11.9659 11.9659C14.0341 9.89773 16.5455 8.86364 19.5 8.86364C22.4545 8.86364 24.9659 9.89773 27.0341 11.9659C29.1023 14.0341 30.1364 16.5455 30.1364 19.5C30.1364 22.4545 29.1023 24.9659 27.0341 27.0341C24.9659 29.1023 22.4545 30.1364 19.5 30.1364ZM19.5 26.5909C21.45 26.5909 23.1193 25.8966 24.508 24.508C25.8966 23.1193 26.5909 21.45 26.5909 19.5C26.5909 17.55 25.8966 15.8807 24.508 14.492C23.1193 13.1034 21.45 12.4091 19.5 12.4091C17.55 12.4091 15.8807 13.1034 14.492 14.492C13.1034 15.8807 12.4091 17.55 12.4091 19.5C12.4091 21.45 13.1034 23.1193 14.492 24.508C15.8807 25.8966 17.55 26.5909 19.5 26.5909Z" fill="#7E7E7E"/>
</svg>
