<svg width="37" height="37" viewBox="0 0 37 37" fill="none" xmlns="http://www.w3.org/2000/svg">
<path d="M15.801 27.499H4.10022V23.8986H15.801C16.9508 23.899 18.0786 24.2141 19.0621 24.8097C20.0457 25.4053 20.8475 26.2587 21.3807 27.2775C21.9139 28.2962 22.1582 29.4415 22.087 30.5892C22.0159 31.7368 21.632 32.8431 20.9771 33.7882C20.3222 34.7333 19.4211 35.4812 18.3715 35.9507C17.3219 36.4203 16.1639 36.5936 15.0228 36.452C13.8817 36.3104 12.8012 35.8592 11.8982 35.1474C10.9952 34.4355 10.3043 33.4901 9.90019 32.4136L13.2718 31.148C13.4449 31.6094 13.741 32.0146 14.128 32.3197C14.5149 32.6249 14.978 32.8183 15.4671 32.879C15.9561 32.9398 16.4524 32.8655 16.9022 32.6643C17.3521 32.4631 17.7383 32.1426 18.019 31.7376C18.2997 31.3326 18.4643 30.8584 18.4948 30.3666C18.5253 29.8747 18.4207 29.3839 18.1922 28.9473C17.9637 28.5106 17.6201 28.1449 17.1986 27.8896C16.7771 27.6343 16.2937 27.4992 15.801 27.499ZM5.90034 16.6978H30.2018C31.3517 16.6983 32.4795 17.0133 33.463 17.6089C34.4466 18.2045 35.2484 19.0579 35.7816 20.0767C36.3148 21.0954 36.5591 22.2407 36.4879 23.3884C36.4168 24.536 36.0329 25.6423 35.378 26.5874C34.7231 27.5325 33.822 28.2804 32.7724 28.7499C31.7228 29.2195 30.5648 29.3929 29.4237 29.2513C28.2826 29.1096 27.2021 28.6585 26.2991 27.9466C25.3961 27.2347 24.7052 26.2893 24.3011 25.2128L27.6727 23.9472C27.8458 24.4086 28.1419 24.8138 28.5289 25.119C28.9158 25.4241 29.3789 25.6175 29.868 25.6782C30.357 25.739 30.8533 25.6647 31.3031 25.4635C31.753 25.2623 32.1392 24.9418 32.4199 24.5368C32.7006 24.1318 32.8652 23.6577 32.8957 23.1658C32.9262 22.6739 32.8216 22.1831 32.5931 21.7465C32.3646 21.3099 32.021 20.9441 31.5995 20.6888C31.178 20.4335 30.6946 20.2984 30.2018 20.2982H5.90034C4.46808 20.2982 3.09448 19.7293 2.08172 18.7164C1.06896 17.7036 0.5 16.33 0.5 14.8977C0.5 13.4653 1.06896 12.0917 2.08172 11.0789C3.09448 10.0661 4.46808 9.49707 5.90034 9.49707H21.2013C21.6941 9.49686 22.1774 9.3618 22.5989 9.10651C23.0204 8.85123 23.364 8.48546 23.5925 8.04883C23.821 7.6122 23.9257 7.12136 23.8951 6.6295C23.8646 6.13764 23.7001 5.66351 23.4194 5.25849C23.1386 4.85347 22.7524 4.53299 22.3026 4.33179C21.8527 4.13059 21.3564 4.05633 20.8674 4.11707C20.3784 4.1778 19.9153 4.37121 19.5283 4.67634C19.1414 4.98147 18.8453 5.38668 18.6721 5.84807L15.3005 4.58433C15.8198 3.20323 16.8072 2.04811 18.0906 1.32024C19.374 0.592365 20.8721 0.337882 22.3239 0.601131C23.7757 0.86438 25.089 1.62867 26.0352 2.76084C26.9814 3.893 27.5003 5.32127 27.5017 6.79678C27.5017 8.46782 26.8379 10.0704 25.6563 11.252C24.4748 12.4336 22.8723 13.0975 21.2013 13.0975H5.90034C5.42292 13.0975 4.96505 13.2871 4.62747 13.6247C4.28988 13.9623 4.10022 14.4202 4.10022 14.8977C4.10022 15.3751 4.28988 15.833 4.62747 16.1706C4.96505 16.5082 5.42292 16.6978 5.90034 16.6978Z" fill="#7E7E7E"/>
</svg>
