<svg width="27" height="26" viewBox="0 0 27 26" fill="none" xmlns="http://www.w3.org/2000/svg">
<path d="M7.23024 8.83793C7.5977 5.65328 10.2942 3.25 13.5 3.25V3.25C16.7058 3.25 19.4023 5.65328 19.7698 8.83793L20.0234 11.0358C20.0437 11.2121 20.0539 11.3003 20.0659 11.3872C20.2113 12.4433 20.5663 13.4597 21.11 14.3767C21.1548 14.4522 21.2018 14.5275 21.2956 14.6782L21.9363 15.7064C22.5807 16.7407 22.903 17.2578 22.7888 17.6786C22.7464 17.8349 22.6666 17.9786 22.5564 18.0973C22.2596 18.4167 21.6503 18.4167 20.4317 18.4167H6.56828C5.34966 18.4167 4.74036 18.4167 4.44365 18.0973C4.3334 17.9786 4.25364 17.8349 4.21121 17.6786C4.09703 17.2578 4.41925 16.7407 5.06368 15.7064L5.70438 14.6782C5.79825 14.5275 5.84518 14.4522 5.88996 14.3767C6.43373 13.4597 6.78874 12.4433 6.93415 11.3872C6.94612 11.3003 6.95629 11.2121 6.97664 11.0358L7.23024 8.83793Z" stroke="#383838" stroke-width="2"/>
<path d="M9 18.4167C9 18.9857 9.1164 19.5492 9.34254 20.075C9.56869 20.6007 9.90016 21.0784 10.318 21.4808C10.7359 21.8832 11.232 22.2024 11.7779 22.4201C12.3239 22.6379 12.9091 22.75 13.5 22.75C14.0909 22.75 14.6761 22.6379 15.2221 22.4201C15.768 22.2024 16.2641 21.8832 16.682 21.4808C17.0998 21.0784 17.4313 20.6007 17.6575 20.075C17.8836 19.5492 18 18.9857 18 18.4167" stroke="#383838" stroke-width="2" stroke-linecap="round"/>
</svg>
