<svg width="23" height="18" viewBox="0 0 23 18" fill="none" xmlns="http://www.w3.org/2000/svg">
<path d="M22.6633 8.29298L13.4632 0.292794C13.3024 0.152981 13.0975 0.0577724 12.8744 0.0192039C12.6514 -0.0193645 12.4202 0.000438961 12.2101 0.0761108C12 0.151783 11.8204 0.279925 11.694 0.444339C11.5676 0.608753 11.5002 0.802056 11.5001 0.999811V4.54489C8.35862 4.79769 5.43867 6.06079 3.31168 8.08701C1.18469 10.1132 0.00376253 12.7567 0 15.5002V17.0002C0.000181536 17.2078 0.0746469 17.4102 0.213068 17.5793C0.351488 17.7484 0.547002 17.8759 0.772493 17.944C0.997983 18.0122 1.24227 18.0176 1.47147 17.9596C1.70068 17.9016 1.90343 17.783 2.05162 17.6202C3.17846 16.4553 4.56088 15.4973 6.11818 14.8021C7.67548 14.1069 9.37644 13.6884 11.1218 13.5711C11.1793 13.5651 11.323 13.5551 11.5001 13.5451V17.0002C11.5002 17.1979 11.5676 17.3912 11.694 17.5557C11.8204 17.7201 12 17.8482 12.2101 17.9239C12.4202 17.9996 12.6514 18.0194 12.8744 17.9808C13.0975 17.9422 13.3024 17.847 13.4632 17.7072L22.6633 9.70702C22.8789 9.51949 23 9.26517 23 9C23 8.73483 22.8789 8.48052 22.6633 8.29298ZM13.8001 14.5861V12.5001C13.8001 12.2349 13.679 11.9805 13.4633 11.793C13.2476 11.6054 12.9551 11.5001 12.6501 11.5001C12.3569 11.5001 11.1597 11.5501 10.8538 11.5851C7.7543 11.8331 4.80392 12.8571 2.35983 14.5331C2.63726 12.3275 3.84051 10.2884 5.7392 8.80616C7.63789 7.32393 10.0986 6.50279 12.6501 6.49994C12.9551 6.49994 13.2476 6.39458 13.4633 6.20704C13.679 6.0195 13.8001 5.76514 13.8001 5.49992V3.41387L20.2241 9L13.8001 14.5861Z" fill="#383838"/>
</svg>
