<svg width="45" height="45" viewBox="0 0 45 45" fill="none" xmlns="http://www.w3.org/2000/svg">
<path d="M7.5 16.875C7.5 11.5717 7.5 8.92005 9.14752 7.27252C10.795 5.625 13.4467 5.625 18.75 5.625H26.25C31.5533 5.625 34.205 5.625 35.8525 7.27252C37.5 8.92005 37.5 11.5717 37.5 16.875V29.6768C37.5 34.7079 37.5 37.2235 35.917 37.9929C34.3339 38.7623 32.3559 37.2082 28.3998 34.0998L27.1337 33.105C24.9092 31.3572 23.797 30.4833 22.5 30.4833C21.203 30.4833 20.0908 31.3572 17.8663 33.105L16.6002 34.0998C12.6441 37.2082 10.6661 38.7623 9.08305 37.9929C7.5 37.2235 7.5 34.7079 7.5 29.6768V16.875Z" stroke="white" stroke-width="3.75"/>
</svg>
