<svg width="37" height="37" viewBox="0 0 37 37" fill="none" xmlns="http://www.w3.org/2000/svg">
<path d="M18.5 32.375C21.2442 32.375 23.9268 31.5613 26.2085 30.0366C28.4903 28.512 30.2687 26.3451 31.3188 23.8097C32.369 21.2744 32.6438 18.4846 32.1084 15.7931C31.573 13.1016 30.2516 10.6294 28.3111 8.6889C26.3707 6.74845 23.8984 5.42698 21.2069 4.89161C18.5154 4.35624 15.7256 4.63101 13.1903 5.68118C10.6549 6.73134 8.48796 8.50974 6.96336 10.7915C5.43875 13.0732 4.625 15.7558 4.625 18.5C4.625 20.794 5.18 22.9554 6.16667 24.8625L4.625 32.375L12.1375 30.8333C14.043 31.8185 16.2075 32.375 18.5 32.375Z" stroke="white" stroke-width="3.08333" stroke-linecap="round" stroke-linejoin="round"/>
</svg>
