<svg width="45" height="45" viewBox="0 0 45 45" fill="none" xmlns="http://www.w3.org/2000/svg">
<path d="M8.34501 26.0779L21.3812 38.324C21.8302 38.7458 22.0547 38.9567 22.3195 39.0087C22.4387 39.0321 22.5613 39.0321 22.6805 39.0087C22.9453 38.9567 23.1698 38.7458 23.6188 38.324L36.655 26.0779C40.3228 22.6324 40.7682 16.9624 37.6834 12.9864L37.1034 12.2388C33.413 7.48234 26.0056 8.28003 23.4125 13.7131C23.0462 14.4805 21.9538 14.4805 21.5875 13.7131C18.9944 8.28003 11.587 7.48234 7.89664 12.2388L7.3166 12.9864C4.23178 16.9624 4.67718 22.6324 8.34501 26.0779Z" stroke="white" stroke-width="3.75"/>
</svg>
