<svg width="39" height="34" viewBox="0 0 39 34" fill="none" xmlns="http://www.w3.org/2000/svg">
<path d="M37.9437 15.6645L22.7435 0.553055C22.4778 0.288964 22.1393 0.109126 21.7708 0.0362741C21.4023 -0.0365775 21.0203 0.000829149 20.6732 0.143765C20.326 0.286701 20.0293 0.528747 19.8205 0.839307C19.6118 1.14987 19.5003 1.51499 19.5002 1.88853V8.5848C14.3099 9.06231 9.48563 11.4482 5.97147 15.2755C2.45731 19.1028 0.506216 24.096 0.5 29.2781V32.1115C0.5003 32.5036 0.62333 32.8859 0.852025 33.2053C1.08072 33.5248 1.40374 33.7656 1.77629 33.8943C2.14884 34.023 2.55245 34.0333 2.93113 33.9237C3.30982 33.8141 3.6448 33.59 3.88964 33.2826C5.75136 31.0822 8.03537 29.2726 10.6083 27.9595C13.1812 26.6463 15.9915 25.8559 18.8751 25.6343C18.9701 25.623 19.2076 25.6041 19.5002 25.5852V32.1115C19.5003 32.485 19.6118 32.8501 19.8205 33.1607C20.0293 33.4713 20.326 33.7133 20.6732 33.8562C21.0203 33.9992 21.4023 34.0366 21.7708 33.9637C22.1393 33.8909 22.4778 33.711 22.7435 33.4469L37.9437 18.3355C38.2999 17.9813 38.5 17.5009 38.5 17C38.5 16.4991 38.2999 16.0188 37.9437 15.6645ZM23.3002 27.5516V23.6113C23.3002 23.1103 23.1001 22.6298 22.7437 22.2756C22.3874 21.9213 21.9041 21.7223 21.4002 21.7223C20.9157 21.7223 18.9378 21.8168 18.4324 21.8829C13.3114 22.3514 8.4369 24.2857 4.39884 27.4515C4.85721 23.2853 6.84519 19.4336 9.98215 16.6339C13.1191 13.8341 17.1846 12.283 21.4002 12.2777C21.9041 12.2777 22.3874 12.0787 22.7437 11.7244C23.1001 11.3702 23.3002 10.8897 23.3002 10.3887V6.44842L33.9138 17L23.3002 27.5516Z" fill="white"/>
</svg>
