<svg width="25" height="25" viewBox="0 0 25 25" fill="none" xmlns="http://www.w3.org/2000/svg">
<mask id="mask0_2395_15704" style="mask-type:alpha" maskUnits="userSpaceOnUse" x="0" y="0" width="25" height="25">
<rect x="0.120605" y="0.5" width="24" height="24" fill="#D9D9D9"/>
</mask>
<g mask="url(#mask0_2395_15704)">
<path d="M3.12061 21.5C2.57061 21.5 2.09977 21.3042 1.70811 20.9125C1.31644 20.5208 1.12061 20.05 1.12061 19.5V7.5C1.12061 6.95 1.31644 6.47917 1.70811 6.0875C2.09977 5.69583 2.57061 5.5 3.12061 5.5H6.27061L8.12061 3.5H14.1206V5.5H8.99561L7.17061 7.5H3.12061V19.5H19.1206V10.5H21.1206V19.5C21.1206 20.05 20.9248 20.5208 20.5331 20.9125C20.1414 21.3042 19.6706 21.5 19.1206 21.5H3.12061ZM19.1206 7.5V5.5H17.1206V3.5H19.1206V1.5H21.1206V3.5H23.1206V5.5H21.1206V7.5H19.1206ZM11.1206 18C12.3706 18 13.4331 17.5625 14.3081 16.6875C15.1831 15.8125 15.6206 14.75 15.6206 13.5C15.6206 12.25 15.1831 11.1875 14.3081 10.3125C13.4331 9.4375 12.3706 9 11.1206 9C9.87061 9 8.80811 9.4375 7.93311 10.3125C7.05811 11.1875 6.62061 12.25 6.62061 13.5C6.62061 14.75 7.05811 15.8125 7.93311 16.6875C8.80811 17.5625 9.87061 18 11.1206 18ZM11.1206 16C10.4206 16 9.82894 15.7583 9.34561 15.275C8.86227 14.7917 8.62061 14.2 8.62061 13.5C8.62061 12.8 8.86227 12.2083 9.34561 11.725C9.82894 11.2417 10.4206 11 11.1206 11C11.8206 11 12.4123 11.2417 12.8956 11.725C13.3789 12.2083 13.6206 12.8 13.6206 13.5C13.6206 14.2 13.3789 14.7917 12.8956 15.275C12.4123 15.7583 11.8206 16 11.1206 16Z" fill="#3E3E3E"/>
</g>
</svg>
