<svg width="41" height="32" viewBox="0 0 41 32" fill="none" xmlns="http://www.w3.org/2000/svg">
<path d="M19.6299 1.83301C20.1716 1.72806 20.7282 1.72247 21.2705 1.81641L21.5029 1.86328C22.0406 1.98567 22.5474 2.20441 22.998 2.50586L23.1875 2.63965C23.6836 3.01077 24.0894 3.47873 24.3809 4.00977C24.6359 4.47449 24.7993 4.97921 24.8633 5.49805L24.8848 5.7207C24.9205 6.24294 24.8556 6.76702 24.6943 7.2666L24.6191 7.47852C24.4054 8.0355 24.0728 8.54566 23.6396 8.97363L23.123 9.46973C22.6296 9.91632 22.1687 10.3966 21.7451 10.9082L21.7275 10.9297C21.2074 11.5783 20.845 12.2539 20.8018 12.9951L20.7979 13.1445L20.8047 13.3447C20.874 14.3384 21.4562 15.2149 22.3203 15.6816V15.6826L37.4521 23.8887C38.0521 24.214 38.5335 24.6975 38.8467 25.2734L38.9707 25.5264C39.2344 26.1267 39.3129 26.7846 39.2002 27.4219L39.1396 27.6934C38.9722 28.3238 38.62 28.898 38.1211 29.3438L37.8984 29.5264C37.2808 29.9929 36.5156 30.2499 35.7236 30.25H5.27832C4.58528 30.2504 3.91308 30.0538 3.3418 29.6924L3.10352 29.5273C2.56316 29.1197 2.16319 28.574 1.94336 27.9609L1.86035 27.6943C1.6929 27.0644 1.7163 26.4025 1.92676 25.7871L2.0293 25.5264C2.29338 24.9251 2.73254 24.4064 3.29785 24.0371L3.54785 23.8887L3.54883 23.8877L14.1904 18.1064L14.1914 18.1074C14.2094 18.0977 14.2286 18.0894 14.249 18.083L14.3135 18.0693C14.336 18.0668 14.3586 18.0665 14.3809 18.0684L14.4453 18.0791C14.4665 18.085 14.4865 18.0933 14.5049 18.1025L14.5557 18.1338C14.5706 18.1454 14.5835 18.158 14.5947 18.1709L14.624 18.2119C14.6394 18.239 14.6482 18.2671 14.6514 18.2939C14.6529 18.3072 14.6525 18.3206 14.6514 18.334L14.6445 18.375C14.6406 18.3886 14.6342 18.4023 14.627 18.416L14.6006 18.457C14.5897 18.4703 14.577 18.4831 14.5625 18.4951L14.5137 18.5273V18.5283L3.87695 24.3076C3.38276 24.5751 2.97401 24.9802 2.7041 25.4766L2.59668 25.6943C2.36727 26.2166 2.29927 26.7937 2.39844 27.3525L2.45117 27.5908C2.59833 28.1427 2.90489 28.6325 3.32422 29.0059L3.51074 29.1592C4.02372 29.5449 4.64747 29.7488 5.28418 29.748V29.749H35.7236V29.748C36.2807 29.7488 36.828 29.5934 37.2998 29.2959L37.498 29.1592C38.0131 28.7718 38.3894 28.2215 38.5576 27.5908C38.7048 27.0386 38.6832 26.4581 38.5 25.9219L38.4111 25.6943L38.3037 25.4766C38.0337 24.9802 37.6251 24.575 37.1309 24.3076H37.1318L21.9971 16.1094C21.5149 15.8461 21.107 15.4797 20.8027 15.043L20.6787 14.8516C20.3658 14.331 20.2027 13.7418 20.2021 13.1445C20.2021 12.3242 20.541 11.593 21.0186 10.9336L21.2314 10.6553L21.2344 10.6514C21.5687 10.2323 21.9806 9.81288 22.3916 9.41406L22.7998 9.02246L22.8076 9.01465L23.168 8.66699L23.1777 8.6582C23.6444 8.20138 23.9836 7.63093 24.1611 7.00293L24.2275 6.73047C24.3579 6.08697 24.3148 5.42348 24.1055 4.80566L24.0049 4.54297C23.7117 3.85388 23.2193 3.27163 22.5957 2.86523C22.0477 2.50809 21.4178 2.3012 20.7744 2.25488L20.498 2.24512C19.9215 2.24513 19.3519 2.37437 18.833 2.62402L18.6143 2.73828C18.0419 3.06075 17.5606 3.52649 17.2227 4.09375C17.1897 4.14848 17.1279 4.20024 17.041 4.22266C16.9754 4.23954 16.9073 4.23667 16.8467 4.2168L16.7881 4.19043C16.7347 4.16019 16.6985 4.12004 16.6777 4.0791L16.6621 4.03809C16.648 3.98738 16.6534 3.93239 16.6816 3.88086C16.952 3.42693 17.3076 3.02396 17.7314 2.69336L17.918 2.55566C18.3634 2.2447 18.8659 2.0163 19.3994 1.88379L19.6299 1.83301Z" fill="black" stroke="#5E6F62" stroke-width="3.5"/>
</svg>
