<svg width="41" height="32" viewBox="0 0 41 32" fill="none" xmlns="http://www.w3.org/2000/svg">
<path d="M19.6299 1.83301C20.2492 1.71303 20.8883 1.72345 21.5029 1.86328C22.1173 2.00312 22.6914 2.26854 23.1875 2.63965C23.6836 3.01077 24.0894 3.47873 24.3809 4.00977C24.6723 4.54071 24.8439 5.12395 24.8848 5.7207C24.9256 6.31738 24.8349 6.91633 24.6191 7.47852C24.4054 8.0355 24.0728 8.54566 23.6396 8.97363L23.123 9.46973C22.6296 9.91631 22.1687 10.3966 21.7451 10.9082L21.7275 10.9297C21.2074 11.5783 20.845 12.2539 20.8018 12.9951L20.7979 13.1445L20.8047 13.3447C20.874 14.3384 21.4562 15.2149 22.3203 15.6816V15.6826L37.4521 23.8887C38.1379 24.2605 38.6689 24.8394 38.9707 25.5264C39.2721 26.2124 39.3308 26.9736 39.1396 27.6934C38.9483 28.4138 38.5154 29.0604 37.8984 29.5264C37.2808 29.9929 36.5156 30.2499 35.7236 30.25H5.27832C4.48628 30.2504 3.72155 29.9936 3.10352 29.5273C2.48609 29.0616 2.052 28.415 1.86035 27.6943C1.66897 26.9744 1.72793 26.2127 2.0293 25.5264C2.29338 24.9251 2.73254 24.4064 3.29785 24.0371L3.54785 23.8887L3.54883 23.8877L14.1904 18.1064L14.1914 18.1074C14.2275 18.0879 14.2689 18.0744 14.3135 18.0693C14.3581 18.0643 14.4031 18.0674 14.4453 18.0791C14.4876 18.0909 14.5253 18.1103 14.5557 18.1338C14.5858 18.1572 14.6085 18.1847 14.624 18.2119C14.6394 18.239 14.6482 18.2671 14.6514 18.2939C14.6545 18.3207 14.6524 18.3481 14.6445 18.375C14.6366 18.4022 14.6221 18.4306 14.6006 18.457C14.5897 18.4703 14.577 18.4831 14.5625 18.4951L14.5137 18.5273V18.5283L3.87695 24.3076C3.38276 24.5751 2.97401 24.9802 2.7041 25.4766L2.59668 25.6943C2.33449 26.2912 2.2829 26.9596 2.45117 27.5908C2.61936 28.2216 2.99567 28.7718 3.51074 29.1592C4.02373 29.5449 4.64748 29.7488 5.28418 29.748V29.749H35.7236V29.748C36.3606 29.7489 36.9849 29.5451 37.498 29.1592C38.0131 28.7718 38.3894 28.2215 38.5576 27.5908C38.7048 27.0386 38.6832 26.4581 38.5 25.9219L38.4111 25.6943L38.3037 25.4766C38.0337 24.9802 37.6251 24.575 37.1309 24.3076H37.1318L21.9971 16.1094C21.4461 15.8085 20.9921 15.3728 20.6787 14.8516C20.3658 14.331 20.2027 13.7418 20.2021 13.1445C20.2021 12.3242 20.541 11.593 21.0186 10.9336L21.2314 10.6553L21.2344 10.6514C21.5687 10.2323 21.9806 9.81288 22.3916 9.41406L22.7998 9.02246L22.8076 9.01465L23.168 8.66699L23.1777 8.6582C23.711 8.13615 24.0785 7.46582 24.2275 6.73047C24.3766 5.99486 24.2982 5.23275 24.0049 4.54297C23.7117 3.85388 23.2193 3.27163 22.5957 2.86523C22.0477 2.50809 21.4178 2.3012 20.7744 2.25488L20.498 2.24512C19.8392 2.24513 19.1897 2.41408 18.6143 2.73828C18.0419 3.06076 17.5606 3.5265 17.2227 4.09375C17.1897 4.14848 17.1279 4.20024 17.041 4.22266C16.9534 4.24522 16.8609 4.23148 16.7881 4.19043C16.7169 4.15012 16.677 4.09163 16.6621 4.03809C16.648 3.98738 16.6534 3.93239 16.6816 3.88086C16.9908 3.36183 17.4113 2.90944 17.918 2.55566C18.427 2.20029 19.0106 1.95298 19.6299 1.83301Z" fill="black" stroke="#5E6F62" stroke-width="3.5"/>
</svg>
