<svg width="33" height="36" viewBox="0 0 33 36" fill="none" xmlns="http://www.w3.org/2000/svg">
<path d="M5.79196 34.0002C3.69776 34.0002 2 32.2579 2 30.1069V14.459C2 13.2768 2.52444 12.1568 3.42221 11.4191L13.8523 2.85382C14.5187 2.30197 15.3568 2 16.2221 2C17.0873 2 17.9254 2.30197 18.5918 2.85382L29.0202 11.4191C29.9197 12.1568 30.4441 13.2768 30.4441 14.459V30.1069C30.4441 32.2579 28.7464 34.0002 26.6522 34.0002H5.79196Z" stroke="#5E6F62" stroke-width="3.5" stroke-linecap="round" stroke-linejoin="round"/>
<path d="M11.7778 34.0002V24.2225C11.7778 23.2795 12.1524 22.3752 12.8192 21.7084C13.486 21.0416 14.3904 20.667 15.3333 20.667H17.1111C18.0541 20.667 18.9585 21.0416 19.6252 21.7084C20.292 22.3752 20.6666 23.2795 20.6666 24.2225V34.0002" stroke="#5E6F62" stroke-width="3.5" stroke-linecap="round" stroke-linejoin="round"/>
</svg>
