<svg width="25" height="25" viewBox="0 0 25 25" fill="none" xmlns="http://www.w3.org/2000/svg">
<mask id="mask0_2395_15710" style="mask-type:alpha" maskUnits="userSpaceOnUse" x="0" y="0" width="25" height="25">
<rect x="0.120605" y="0.5" width="24" height="24" fill="#D9D9D9"/>
</mask>
<g mask="url(#mask0_2395_15710)">
<path d="M5.12061 21.5C4.57061 21.5 4.09977 21.3042 3.70811 20.9125C3.31644 20.5208 3.12061 20.05 3.12061 19.5V7.5H17.1206V21.5H5.12061ZM5.12061 18.5H15.1206L11.7206 14L9.12061 17.5L7.52061 15.35L5.12061 18.5ZM5.12061 5.5H3.12061C3.12061 4.95 3.31644 4.47917 3.70811 4.0875C4.09977 3.69583 4.57061 3.5 5.12061 3.5V5.5ZM7.12061 5.5V3.5H9.12061V5.5H7.12061ZM11.1206 5.5V3.5H13.1206V5.5H11.1206ZM15.1206 5.5V3.5H17.1206V5.5H15.1206ZM19.1206 5.5V3.5C19.6706 3.5 20.1414 3.69583 20.5331 4.0875C20.9248 4.47917 21.1206 4.95 21.1206 5.5H19.1206ZM19.1206 19.5H21.1206C21.1206 20.05 20.9248 20.5208 20.5331 20.9125C20.1414 21.3042 19.6706 21.5 19.1206 21.5V19.5ZM19.1206 17.5V15.5H21.1206V17.5H19.1206ZM19.1206 13.5V11.5H21.1206V13.5H19.1206ZM19.1206 9.5V7.5H21.1206V9.5H19.1206Z" fill="white"/>
</g>
</svg>
