<svg width="32" height="32" viewBox="0 0 32 32" fill="none" xmlns="http://www.w3.org/2000/svg">
<path d="M16 19.75C18.4528 19.75 22.2318 20.3743 25.3525 21.6221C26.9115 22.2454 28.1966 22.9814 29.0635 23.7822C29.9178 24.5715 30.25 25.3059 30.25 26V30.25H1.75V26C1.75 25.3059 2.0822 24.5715 2.93652 23.7822C3.80342 22.9814 5.08847 22.2454 6.64746 21.6221C9.76823 20.3743 13.5472 19.75 16 19.75ZM16 20.0498C12.7706 20.0498 9.50561 20.8373 7.04297 21.7871C5.81209 22.2619 4.71873 22.8017 3.89941 23.3486C3.49491 23.6187 3.09827 23.9294 2.78223 24.2793C2.51688 24.5731 2.04981 25.1734 2.0498 26V29.9502H29.9502V26C29.9502 25.1734 29.4831 24.5731 29.2178 24.2793C28.9017 23.9294 28.5051 23.6187 28.1006 23.3486C27.2813 22.8017 26.1879 22.2619 24.957 21.7871C22.4944 20.8373 19.2294 20.0498 16 20.0498ZM16 1.75C17.5542 1.75 19.0488 2.32882 20.1953 3.36719L20.4189 3.58105C21.591 4.75316 22.25 6.3424 22.25 8C22.25 9.55419 21.6712 11.0488 20.6328 12.1953L20.4189 12.4189C19.2468 13.591 17.6576 14.25 16 14.25C14.4458 14.25 12.9512 13.6712 11.8047 12.6328L11.5811 12.4189C10.409 11.2468 9.75 9.6576 9.75 8C9.75 6.44581 10.3288 4.95125 11.3672 3.80469L11.5811 3.58105C12.7532 2.40895 14.3424 1.75 16 1.75ZM16 2.25C14.5703 2.25 13.1954 2.78225 12.1406 3.7373L11.9346 3.93457C10.8562 5.0129 10.25 6.475 10.25 8C10.25 9.42967 10.7823 10.8046 11.7373 11.8594L11.9346 12.0654C13.0129 13.1438 14.475 13.75 16 13.75C17.4297 13.75 18.8046 13.2177 19.8594 12.2627L20.0654 12.0654C21.1438 10.9871 21.75 9.52499 21.75 8C21.75 6.57034 21.2177 5.1954 20.2627 4.14062L20.0654 3.93457C18.9871 2.85624 17.525 2.25 16 2.25Z" fill="black" stroke="#5E6F62" stroke-width="3.5"/>
</svg>
