<svg width="31" height="31" viewBox="0 0 31 31" fill="none" xmlns="http://www.w3.org/2000/svg">
<path d="M11.4648 1.75C14.2131 1.75 16.4779 2.68305 18.3652 4.56836C20.1334 6.33469 21.063 8.43337 21.1699 10.9531L21.1807 11.4629V11.4648C21.1807 12.3248 21.0724 13.1327 20.8652 13.8945C21.056 13.1211 21.1528 12.3098 21.1523 11.4639C21.1509 8.96679 20.3146 6.77157 18.666 4.96289L18.3262 4.60645C16.4523 2.73256 14.131 1.78018 11.4668 1.77734C8.79965 1.77455 6.47687 2.72789 4.60352 4.6084C2.73405 6.48504 1.78171 8.80325 1.77734 11.4619C1.77308 14.1253 2.72791 16.4476 4.60645 18.3262C6.48402 20.2036 8.8039 21.1561 11.4648 21.1514V21.1523L11.4658 21.1514L11.4688 21.1523L11.4678 21.1514C12.3198 21.1512 13.1365 21.0535 13.915 20.8594C13.1472 21.0702 12.3325 21.1807 11.4648 21.1807C8.71422 21.1806 6.45136 20.2471 4.56836 18.3633C2.68477 16.4787 1.75109 14.2148 1.75 11.4648L1.76074 10.9551C1.86199 8.60237 2.67898 6.61652 4.22461 4.92578L4.56738 4.56836C6.45332 2.68342 8.71676 1.75007 11.4648 1.75Z" stroke="#5E6F62" stroke-width="3.5"/>
</svg>
