<svg width="18" height="21" viewBox="0 0 18 21" fill="none" xmlns="http://www.w3.org/2000/svg">
<path d="M8.2461 20.7499C7.79762 20.7499 7.37716 20.653 6.98474 20.4592C6.59232 20.2654 6.25996 19.9908 5.98766 19.6355L0.75 12.9248L1.20649 12.4403C1.52684 12.1012 1.91126 11.8993 2.35974 11.8347C2.80823 11.7701 3.22468 11.8589 3.60909 12.1012L5.38701 13.1913V5.24514C5.38701 4.97058 5.47911 4.74043 5.66331 4.55469C5.84751 4.36896 6.07576 4.27609 6.34805 4.27609C6.62035 4.27609 6.8526 4.36896 7.04481 4.55469C7.23701 4.74043 7.33312 4.97058 7.33312 5.24514V16.6799L5.0026 15.2263L7.5013 18.4484C7.5974 18.5615 7.70952 18.6503 7.83766 18.7149C7.9658 18.7795 8.10195 18.8118 8.2461 18.8118H13.5558C14.0844 18.8118 14.5369 18.622 14.9133 18.2425C15.2897 17.8629 15.4779 17.4067 15.4779 16.8737V12.9975C15.4779 12.723 15.3858 12.4928 15.2016 12.3071C15.0174 12.1213 14.7892 12.0285 14.5169 12.0285H9.25519V10.0904H14.5169C15.3177 10.0904 15.9985 10.373 16.5591 10.9383C17.1197 11.5036 17.4 12.19 17.4 12.9975V16.8737C17.4 17.9397 17.0236 18.8522 16.2708 19.6113C15.518 20.3704 14.613 20.7499 13.5558 20.7499H8.2461ZM2.19156 7.66776C1.98333 7.31244 1.82316 6.92886 1.71104 6.51702C1.59892 6.10517 1.54286 5.68121 1.54286 5.24514C1.54286 3.90462 2.01136 2.76196 2.94838 1.81713C3.88539 0.872313 5.01861 0.399902 6.34805 0.399902C6.78052 0.399902 7.19697 0.452392 7.5974 0.557373C7.99783 0.662353 8.37424 0.819823 8.72662 1.02978C9.47944 1.4497 10.0721 2.03921 10.5045 2.7983C10.937 3.55738 11.1532 4.373 11.1532 5.24514C11.1532 5.68121 11.0972 6.10517 10.9851 6.51702C10.8729 6.92886 10.7128 7.31244 10.5045 7.66776L8.84675 6.69871C8.97489 6.4726 9.071 6.24245 9.13507 6.00827C9.19913 5.77408 9.23117 5.5197 9.23117 5.24514C9.23117 4.72832 9.09903 4.24379 8.83474 3.79157C8.57045 3.33935 8.21407 2.98403 7.76558 2.72562C7.55736 2.59641 7.33312 2.49951 7.09286 2.4349C6.8526 2.3703 6.60433 2.338 6.34805 2.338C5.54719 2.338 4.86645 2.62064 4.30584 3.18591C3.74524 3.75119 3.46493 4.4376 3.46493 5.24514C3.46493 5.5197 3.49697 5.77408 3.56104 6.00827C3.62511 6.24245 3.72121 6.4726 3.84935 6.69871L2.19156 7.66776ZM11.6097 2.72562L12.5708 1.02978C13.3236 1.4497 13.9162 2.03921 14.3487 2.7983C14.7812 3.55738 14.9974 4.373 14.9974 5.24514C14.9974 5.68121 14.9413 6.10517 14.8292 6.51702C14.7171 6.92886 14.5569 7.31244 14.3487 7.66776L12.6909 6.69871C12.819 6.4726 12.9152 6.24245 12.9792 6.00827C13.0433 5.77408 13.0753 5.5197 13.0753 5.24514C13.0753 4.72832 12.9432 4.24379 12.6789 3.79157C12.4146 3.33935 12.0582 2.98403 11.6097 2.72562Z" fill="#3E3E3E"/>
</svg>
